<svg width="226" height="99" viewBox="0 0 226 99" fill="none" xmlns="http://www.w3.org/2000/svg">
<path d="M10.7868 67.8521H46.596V76H0.770648V0.437495H10.7868V67.8521ZM53.9135 47.4046C53.9135 41.9035 54.9861 36.9559 57.1311 32.5619C59.3108 28.168 62.3209 24.7773 66.1613 22.3901C70.0363 20.0028 74.4476 18.8091 79.3951 18.8091C87.0413 18.8091 93.2171 21.4559 97.9224 26.7494C102.662 32.043 105.032 39.0837 105.032 47.8717V48.5463C105.032 54.0128 103.977 58.9258 101.867 63.2852C99.7907 67.6099 96.798 70.9833 92.8884 73.4051C89.0134 75.827 84.5502 77.0379 79.4989 77.0379C71.8873 77.0379 65.7115 74.3912 60.9715 69.0977C56.2662 63.8041 53.9135 56.798 53.9135 48.0792V47.4046ZM63.5664 48.5463C63.5664 54.774 65.0022 59.7734 67.8739 63.5446C70.7801 67.3158 74.6551 69.2015 79.4989 69.2015C84.3772 69.2015 88.2522 67.2985 91.1239 63.4927C93.9955 59.6523 95.4314 54.2896 95.4314 47.4046C95.4314 41.2461 93.9609 36.2639 91.0201 32.4581C88.1138 28.6177 84.2388 26.6975 79.3951 26.6975C74.6551 26.6975 70.832 28.5831 67.9258 32.3543C65.0195 36.1256 63.5664 41.5229 63.5664 48.5463ZM114.789 47.4565C114.789 38.7031 116.813 31.7489 120.861 26.5937C124.909 21.404 130.272 18.8091 136.949 18.8091C143.8 18.8091 149.145 21.231 152.986 26.0748L153.453 19.8471H162.223V74.6507C162.223 81.9163 160.061 87.6423 155.736 91.8287C151.446 96.0151 145.668 98.1083 138.402 98.1083C134.354 98.1083 130.393 97.2433 126.518 95.5134C122.643 93.7835 119.685 91.4135 117.643 88.4035L122.626 82.6429C126.743 87.7288 131.777 90.2718 137.728 90.2718C142.398 90.2718 146.031 88.957 148.626 86.3276C151.256 83.6981 152.57 79.9961 152.57 75.2215V70.3951C148.73 74.8237 143.488 77.0379 136.845 77.0379C130.272 77.0379 124.944 74.3912 120.861 69.0977C116.813 63.8041 114.789 56.5904 114.789 47.4565ZM124.442 48.5463C124.442 54.8778 125.739 59.8599 128.334 63.4927C130.929 67.091 134.562 68.8901 139.233 68.8901C145.287 68.8901 149.733 66.1395 152.57 60.6384V35.0011C149.629 29.6384 145.218 26.957 139.337 26.957C134.666 26.957 131.016 28.7734 128.386 32.4062C125.757 36.0391 124.442 41.4191 124.442 48.5463ZM174.212 47.4046C174.212 41.9035 175.284 36.9559 177.429 32.5619C179.609 28.168 182.619 24.7773 186.459 22.3901C190.334 20.0028 194.746 18.8091 199.693 18.8091C207.339 18.8091 213.515 21.4559 218.22 26.7494C222.96 32.043 225.33 39.0837 225.33 47.8717V48.5463C225.33 54.0128 224.275 58.9258 222.165 63.2852C220.089 67.6099 217.096 70.9833 213.186 73.4051C209.311 75.827 204.848 77.0379 199.797 77.0379C192.185 77.0379 186.009 74.3912 181.27 69.0977C176.564 63.8041 174.212 56.798 174.212 48.0792V47.4046ZM183.864 48.5463C183.864 54.774 185.3 59.7734 188.172 63.5446C191.078 67.3158 194.953 69.2015 199.797 69.2015C204.675 69.2015 208.55 67.2985 211.422 63.4927C214.294 59.6523 215.729 54.2896 215.729 47.4046C215.729 41.2461 214.259 36.2639 211.318 32.4581C208.412 28.6177 204.537 26.6975 199.693 26.6975C194.953 26.6975 191.13 28.5831 188.224 32.3543C185.318 36.1256 183.864 41.5229 183.864 48.5463Z" fill="black"/>
</svg>
